<svg width="512" height="512" viewBox="0 0 512 512" fill="none" xmlns="http://www.w3.org/2000/svg">
<path fill-rule="evenodd" clip-rule="evenodd" d="M247.109 474.011H430.1V37.9898H247.109V474.011ZM436.1 486.011H241.109C237.8 486.011 235.108 483.323 235.108 480.011L235.109 31.9898C235.109 28.667 237.796 25.9897 241.109 25.9897H436.1C439.413 25.9897 442.098 28.667 442.098 31.9898L442.1 480.011C442.1 483.323 439.411 486.011 436.1 486.011Z" fill="white"/>
<path fill-rule="evenodd" clip-rule="evenodd" d="M241.109 486.011H75.9031C72.5798 486.011 69.9001 483.323 69.9001 480.011L69.9031 165.948C69.9031 162.636 72.578 159.948 75.9007 159.948H241.109C244.424 159.948 247.109 162.636 247.109 165.948C247.109 169.261 244.421 171.948 241.109 171.948H81.9038V474.011H241.109C244.424 474.011 247.109 476.699 247.109 480.011C247.109 483.323 244.421 486.011 241.109 486.011Z" fill="white"/>
<path fill-rule="evenodd" clip-rule="evenodd" d="M391.944 486.011C388.635 486.011 385.943 483.323 385.943 480.011L385.944 375.687H291.266V480.011C291.266 483.323 288.588 486.011 285.265 486.011C281.956 486.011 279.265 483.323 279.265 480.011L279.266 369.687C279.266 366.375 281.953 363.688 285.265 363.688H391.944C395.259 363.688 397.943 366.375 397.943 369.688L397.944 480.01C397.944 483.323 395.255 486.011 391.944 486.011Z" fill="white"/>
<path fill-rule="evenodd" clip-rule="evenodd" d="M281.872 330.844H313.246V299.469H281.872V330.844ZM319.246 342.844H275.872C272.558 342.844 269.87 340.157 269.87 336.844L269.872 293.469C269.872 290.156 272.557 287.469 275.87 287.469H319.246C322.559 287.469 325.245 290.156 325.245 293.469L325.246 336.844C325.246 340.156 322.557 342.844 319.246 342.844Z" fill="white"/>
<path fill-rule="evenodd" clip-rule="evenodd" d="M363.973 330.844H395.352V299.469H363.973V330.844ZM401.352 342.844H357.973C354.664 342.844 351.973 340.157 351.973 336.844V293.469C351.973 290.156 354.661 287.469 357.973 287.469H401.352C404.661 287.469 407.349 290.156 407.349 293.469L407.352 336.844C407.352 340.156 404.661 342.844 401.352 342.844Z" fill="white"/>
<path fill-rule="evenodd" clip-rule="evenodd" d="M281.872 254.625H313.246V223.261H281.872V254.625ZM319.246 266.625H275.872C272.558 266.625 269.87 263.949 269.87 260.625L269.872 217.261C269.872 213.938 272.557 211.261 275.87 211.261H319.246C322.559 211.261 325.245 213.938 325.245 217.261L325.246 260.625C325.246 263.949 322.557 266.625 319.246 266.625Z" fill="white"/>
<path fill-rule="evenodd" clip-rule="evenodd" d="M363.973 254.625H395.352V223.261H363.973V254.625ZM401.352 266.625H357.973C354.664 266.625 351.973 263.949 351.973 260.625V217.261C351.973 213.938 354.661 211.261 357.973 211.261H401.352C404.661 211.261 407.349 213.938 407.349 217.261L407.352 260.625C407.352 263.949 404.661 266.625 401.352 266.625Z" fill="white"/>
<path fill-rule="evenodd" clip-rule="evenodd" d="M281.872 178.417H313.246V147.042H281.872V178.417ZM319.246 190.417H275.872C272.558 190.417 269.87 187.73 269.87 184.417L269.872 141.042C269.872 137.729 272.557 135.042 275.87 135.042H319.246C322.559 135.042 325.245 137.729 325.245 141.042L325.246 184.417C325.246 187.729 322.557 190.417 319.246 190.417Z" fill="white"/>
<path fill-rule="evenodd" clip-rule="evenodd" d="M363.973 178.417H395.352V147.042H363.973V178.417ZM401.352 190.417H357.973C354.664 190.417 351.973 187.73 351.973 184.417V141.042C351.973 137.729 354.661 135.042 357.973 135.042H401.352C404.661 135.042 407.349 137.729 407.349 141.042L407.352 184.417C407.352 187.729 404.661 190.417 401.352 190.417Z" fill="white"/>
<path fill-rule="evenodd" clip-rule="evenodd" d="M281.872 102.198H313.246V70.8228H281.872V102.198ZM319.246 114.198H275.872C272.558 114.198 269.87 111.51 269.87 108.198L269.872 64.8228C269.872 61.5104 272.557 58.8228 275.87 58.8228H319.246C322.559 58.8228 325.245 61.5104 325.245 64.8228L325.246 108.198C325.246 111.51 322.557 114.198 319.246 114.198Z" fill="white"/>
<path fill-rule="evenodd" clip-rule="evenodd" d="M363.973 102.198H395.352V70.8228H363.973V102.198ZM401.352 114.198H357.973C354.664 114.198 351.973 111.51 351.973 108.198V64.8228C351.973 61.5104 354.661 58.8228 357.973 58.8228H401.352C404.661 58.8228 407.349 61.5104 407.349 64.8228L407.352 108.198C407.352 111.51 404.661 114.198 401.352 114.198Z" fill="white"/>
<path fill-rule="evenodd" clip-rule="evenodd" d="M124.226 230.813H192.776V202.542H124.226V230.813ZM198.776 242.813H118.226C114.912 242.813 112.223 240.125 112.223 236.813L112.226 196.542C112.226 193.219 114.911 190.542 118.223 190.542H198.776C202.1 190.542 204.776 193.219 204.776 196.542L204.776 236.813C204.776 240.125 202.098 242.813 198.776 242.813Z" fill="white"/>
<path fill-rule="evenodd" clip-rule="evenodd" d="M124.226 301.677H192.776V273.406H124.226V301.677ZM198.776 313.677H118.226C114.912 313.677 112.223 311 112.223 307.677L112.226 267.406C112.226 264.094 114.911 261.406 118.223 261.406H198.776C202.1 261.406 204.776 264.094 204.776 267.406L204.776 307.677C204.776 311 202.098 313.677 198.776 313.677Z" fill="white"/>
<path fill-rule="evenodd" clip-rule="evenodd" d="M124.226 372.552H192.776V344.271H124.226V372.552ZM198.776 384.552H118.226C114.912 384.552 112.223 381.865 112.223 378.552L112.226 338.271C112.226 334.959 114.911 332.271 118.223 332.271H198.776C202.1 332.271 204.776 334.959 204.776 338.271L204.776 378.552C204.776 381.865 202.098 384.552 198.776 384.552Z" fill="white"/>
<path fill-rule="evenodd" clip-rule="evenodd" d="M124.226 443.417H192.776V415.136H124.226V443.417ZM198.776 455.417H118.226C114.912 455.417 112.223 452.73 112.223 449.417L112.226 409.136C112.226 405.823 114.911 403.146 118.223 403.146H198.776C202.1 403.146 204.776 405.823 204.776 409.136L204.776 449.417C204.776 452.73 202.098 455.417 198.776 455.417Z" fill="white"/>
<path fill-rule="evenodd" clip-rule="evenodd" d="M338.609 486.011C335.3 486.011 332.609 483.323 332.609 480.011V369.687C332.609 366.375 335.296 363.688 338.609 363.688C341.923 363.688 344.609 366.375 344.609 369.688V480.01C344.609 483.323 341.922 486.011 338.609 486.011Z" fill="white"/>
</svg>
