<svg width="512" height="512" viewBox="0 0 512 512" fill="none" xmlns="http://www.w3.org/2000/svg">
<g clip-path="url(#clip0_519_108)">
<path d="M480 234.679H53.333V54.8392C53.333 42.6792 64.64 32.0122 77.546 32.0122H122.133C134.72 32.0122 144.853 42.2522 144.96 54.7322C124.16 59.9592 106.667 79.1592 106.667 99.4252V128.012C106.667 133.879 111.467 138.679 117.334 138.679H192C197.867 138.679 202.667 133.879 202.667 128.012V99.4262C202.667 78.8392 186.347 59.9592 166.294 54.8392C166.294 30.5192 146.561 10.6792 122.134 10.6792H77.547C52.907 10.6792 32 30.9462 32 54.8392V234.679C14.4 234.572 0.107 248.866 0 266.466C0 275.639 3.84 284.279 10.667 290.359V346.252C10.667 389.665 29.974 426.892 61.227 451.105L43.734 485.878C41.067 491.105 43.201 497.505 48.534 500.171C53.761 502.838 60.161 500.704 62.827 495.371L79.254 462.624C100.801 474.144 124.907 480.117 149.334 479.904H362.667C387.094 480.117 411.2 474.144 432.747 462.624L449.174 495.371C451.841 500.598 458.241 502.731 463.467 500.171C468.694 497.611 470.827 491.104 468.267 485.878L450.774 450.998C482.027 426.891 501.334 389.558 501.334 346.145V290.252C508.054 284.385 512.001 275.745 512.001 266.679C512 248.973 497.707 234.679 480 234.679ZM155.627 74.6792C168.32 74.6792 181.334 87.1592 181.334 99.4262V117.346H128V99.4262C128 87.5862 142.4 74.6792 155.627 74.6792ZM480 346.253C480 410.36 429.547 458.68 362.667 458.68H149.333C82.453 458.679 32 410.359 32 346.253V298.68H480V346.253ZM480 277.346H32.32C26.987 277.346 22.187 273.506 21.44 268.279C20.48 261.666 25.6 256.012 32 256.012H479.68C485.013 256.012 489.813 259.852 490.56 265.079C491.52 271.693 486.4 277.346 480 277.346Z" fill="white"/>
</g>
<defs>
<clipPath id="clip0_519_108">
<rect width="512" height="512" fill="white"/>
</clipPath>
</defs>
</svg>
