<svg width="512" height="512" viewBox="0 0 512 512" fill="none" xmlns="http://www.w3.org/2000/svg">
<path d="M440 188H432V124C431.974 101.92 414.08 84.026 392 84H120C97.92 84.026 80.026 101.92 80 124V188H72C32.256 188.048 0.048 220.256 0 260V372H16V428H56V372H456V428H496V372H512V260C511.952 220.256 479.744 188.048 440 188ZM96 124C96 110.745 106.745 100 120 100H392C405.255 100 416 110.745 416 124V188H392V156C392 142.745 381.255 132 368 132H296C282.745 132 272 142.745 272 156V188H240V156C240 142.745 229.255 132 216 132H144C130.745 132 120 142.745 120 156V188H96V124ZM376 156V188H288V156C288 151.582 291.582 148 296 148H368C372.418 148 376 151.582 376 156ZM224 156V188H136V156C136 151.582 139.582 148 144 148H216C220.418 148 224 151.582 224 156ZM40 412H32V372H40V412ZM480 412H472V372H480V412ZM496 356H16V316H496V356ZM496 300H16V260C16.035 229.087 41.087 204.035 72 204H440C470.913 204.035 495.965 229.087 496 260V300Z" fill="white"/>
</svg>
