<svg width="512" height="512" viewBox="0 0 512 512" fill="none" xmlns="http://www.w3.org/2000/svg">
<path d="M471.982 417.008C471.994 416.669 472 416.333 472 416C471.99 407.516 468.616 399.382 462.617 393.383C456.618 387.384 448.484 384.01 440 384V236L468.8 214.4C469.8 213.65 470.611 212.676 471.166 211.555C471.722 210.435 472.007 209.201 472 207.95C471.992 206.7 471.691 205.469 471.122 204.356C470.552 203.243 469.729 202.279 468.72 201.541L400 151.322V64C402.122 64 404.157 63.1571 405.657 61.6569C407.157 60.1566 408 58.1217 408 56V24C408 21.8783 407.157 19.8434 405.657 18.3431C404.157 16.8429 402.122 16 400 16H320C317.878 16 315.843 16.8429 314.343 18.3431C312.843 19.8434 312 21.8783 312 24V56C312 58.1217 312.843 60.1566 314.343 61.6569C315.843 63.1571 317.878 64 320 64V92.861L260.72 49.541C259.35 48.5398 257.697 48.0002 256 48.0002C254.303 48.0002 252.65 48.5398 251.28 49.541L43.28 201.541C42.2705 202.279 41.4479 203.243 40.8784 204.356C40.3088 205.469 40.0081 206.7 40.0003 207.95C39.9925 209.201 40.2779 210.435 40.8336 211.555C41.3893 212.676 42.1997 213.65 43.2 214.4L72 236V384C63.516 384.01 55.3822 387.384 49.3831 393.383C43.384 399.382 40.0095 407.516 40 416C40 416.333 40.006 416.669 40.018 417.008C32.4709 418.948 25.8912 423.576 21.5134 430.023C17.1356 436.469 15.2607 444.292 16.2403 452.023C17.2199 459.753 20.9867 466.861 26.8341 472.012C32.6814 477.163 40.2074 480.003 48 480H464C471.793 480.003 479.319 477.163 485.166 472.012C491.013 466.861 494.78 459.753 495.76 452.023C496.739 444.292 494.864 436.469 490.487 430.023C486.109 423.576 479.529 418.948 471.982 417.008ZM328 32H392V48H328V32ZM336 104V64H384V139.63L335.243 104H336ZM256 65.908L450.555 208.084L431.927 222.055L260.706 97.53C259.338 96.5353 257.691 95.9994 256 95.9994C254.309 95.9994 252.661 96.5353 251.294 97.53L80.073 222.055L61.445 208.084L256 65.908ZM32 448C32.0044 443.799 33.6587 439.768 36.6066 436.776C39.5544 433.783 43.5598 432.068 47.76 432H47.779C48.188 432.057 48.597 432.106 49.014 432.133C50.3397 432.217 51.6654 431.969 52.8714 431.412C54.0774 430.855 55.1258 430.007 55.9219 428.944C56.718 427.88 57.2368 426.635 57.4315 425.321C57.6262 424.007 57.4906 422.665 57.037 421.417C56.3749 419.687 56.0239 417.853 56 416C56.005 411.758 57.6923 407.691 60.6918 404.692C63.6913 401.692 67.7581 400.005 72 400V464H48C43.7581 463.995 39.6913 462.308 36.6918 459.308C33.6923 456.309 32.005 452.242 32 448ZM376 464H280V288H376V464ZM392 464V280C392 277.878 391.157 275.843 389.657 274.343C388.157 272.843 386.122 272 384 272H272C269.878 272 267.843 272.843 266.343 274.343C264.843 275.843 264 277.878 264 280V464H88V236.074L256 113.892L424 236.074V464H392ZM464 464H440V400C444.242 400.005 448.309 401.692 451.308 404.692C454.308 407.691 455.995 411.758 456 416C455.977 417.854 455.626 419.689 454.963 421.421C454.509 422.669 454.374 424.011 454.568 425.325C454.763 426.639 455.282 427.884 456.078 428.948C456.874 430.011 457.923 430.859 459.129 431.416C460.335 431.973 461.66 432.221 462.986 432.137C463.403 432.11 463.812 432.061 464.221 432.004H464.24C468.483 432.036 472.54 433.752 475.519 436.775C478.497 439.798 480.152 443.881 480.12 448.124C480.088 452.367 478.372 456.424 475.349 459.403C472.326 462.381 468.243 464.036 464 464.004V464Z" fill="white"/>
<path d="M224 272H128C125.878 272 123.843 272.843 122.343 274.343C120.843 275.843 120 277.878 120 280V392C120 394.122 120.843 396.157 122.343 397.657C123.843 399.157 125.878 400 128 400H224C226.122 400 228.157 399.157 229.657 397.657C231.157 396.157 232 394.122 232 392V280C232 277.878 231.157 275.843 229.657 274.343C228.157 272.843 226.122 272 224 272ZM216 328H184V288H216V328ZM168 288V328H136V288H168ZM136 344H168V384H136V344ZM184 384V344H216V384H184Z" fill="white"/>
<path d="M311.391 371.061C313.082 366.98 311.144 362.3 307.062 360.609C302.98 358.918 298.3 360.857 296.609 364.939C294.919 369.021 296.857 373.7 300.939 375.391C305.021 377.082 309.701 375.143 311.391 371.061Z" fill="white"/>
</svg>
