<svg xmlns="http://www.w3.org/2000/svg" version="1.1" xmlns:xlink="http://www.w3.org/1999/xlink" width="512" height="512" x="0" y="0" viewBox="0 0 512 512" style="enable-background:new 0 0 512 512" xml:space="preserve" class=""><g><g fill="#bddbff"><path d="m419.852 203.3-169.5-137.218 165.214 133.785zm0 0" fill="#e9d5ff" opacity="1" data-original="#bddbff" class=""></path><path d="m250.352 66.082-169.5 137.219 4.285-3.434zm0 0" fill="#e9d5ff" opacity="1" data-original="#bddbff" class=""></path><path d="M357.984 97.941 250.352 10.758 10.762 204.71l27.125 33.367 40.254-32.594v-.02l2.71-2.163 169.5-137.219 169.5 137.219 2.712 2.164v.02l40.253 32.593 27.125-33.367-67.378-54.57zm0 0" fill="#e9d5ff" opacity="1" data-original="#bddbff" class=""></path><path d="m419.852 203.3 2.71 2.184v-.02zM78.14 205.465v.02l2.712-2.184zM422.563 59.945h-64.579v37.996l64.579 52.2zM317.398 234.09c-46.488-37.04-114.203-29.375-151.242 17.113-37.039 46.492-29.379 114.207 17.114 151.246 46.488 37.04 114.203 29.375 151.242-17.113 37.039-46.492 29.379-114.207-17.114-151.246zm0 0" fill="#e9d5ff" opacity="1" data-original="#bddbff" class=""></path></g><path fill="#a26dd8" d="M166.766 234.406c-46.313 46.16-46.438 121.125-.278 167.438a118.389 118.389 0 0 0 83.68 34.812h.184c65.386.047 118.433-52.922 118.48-118.308.047-65.387-52.922-118.434-118.309-118.48h-.171a117.67 117.67 0 0 0-83.586 34.538zm83.734-13.011c53.5.042 96.836 43.445 96.797 96.945-.043 53.496-43.445 96.832-96.945 96.793h-.153c-53.496-.043-96.832-43.446-96.793-96.946.043-53.5 43.446-96.835 96.946-96.792zm0 0" opacity="1" data-original="#3d9ae2" class=""></path><path fill="#a26dd8" d="M250.352 339.79c23.777 0 43.05 19.276 43.05 43.054h21.528c0-35.668-28.914-64.582-64.578-64.582-35.668 0-64.579 28.914-64.579 64.582h21.528c-.004-23.778 19.273-43.055 43.05-43.055zm0 0" opacity="1" data-original="#3d9ae2" class=""></path><path fill="#a26dd8" d="m496.71 196.348-63.386-51.309V59.945c0-5.941-4.816-10.761-10.762-10.761h-64.578c-5.945 0-10.765 4.82-10.765 10.761V75.34L257.12 2.395a10.77 10.77 0 0 0-13.539 0L3.992 196.348c-4.62 3.742-5.336 10.52-1.594 15.14.004.004.008.008.012.016l27.125 33.363c3.742 4.606 10.508 5.309 15.121 1.574l22.723-18.394v262.426h-32.29V512h430.524v-21.527h-32.289V228.047l22.723 18.394c4.61 3.735 11.375 3.032 15.121-1.574l27.125-33.363c3.746-4.613 3.047-11.395-1.566-15.14-.008-.005-.012-.012-.016-.016zM368.747 70.71h43.05v56.894l-43.05-34.843zm43.055 419.762H88.902v-279.84l161.45-130.707L411.8 210.633zm49.445-267.516L257.121 57.707a10.77 10.77 0 0 0-13.539 0L39.457 222.957l-13.539-16.633 224.434-181.71 224.433 181.71zm0 0" opacity="1" data-original="#3d9ae2" class=""></path><path fill="#a26dd8" d="M207.297 275.21h21.527v21.528h-21.527zM271.879 275.21h21.527v21.528H271.88zm0 0" opacity="1" data-original="#3d9ae2" class=""></path></g></svg>