<svg width="512" height="512" viewBox="0 0 512 512" fill="none" xmlns="http://www.w3.org/2000/svg">
<path d="M236.385 229.847H74.3424C73.1799 229.847 72.0307 229.6 70.971 229.122C69.9113 228.644 68.9656 227.946 68.1965 227.075C67.4274 226.203 66.8527 225.177 66.5105 224.066C66.1683 222.956 66.0665 221.784 66.2118 220.631L80.9421 101.192C81.1915 99.2115 82.1553 97.3906 83.6524 96.0708C85.1494 94.7509 87.0768 94.023 89.0726 94.0237H238.131C239.217 94.0236 240.292 94.2393 241.294 94.6583C242.295 95.0774 243.204 95.6913 243.966 96.4645C244.728 97.2378 245.329 98.1548 245.734 99.1623C246.138 100.17 246.339 101.248 246.323 102.333L244.577 221.773C244.546 223.925 243.67 225.979 242.137 227.489C240.604 229 238.538 229.847 236.385 229.847ZM83.6045 213.463H228.316L229.821 110.408H96.3123L83.6045 213.463Z" fill="white"/>
<path d="M442.015 229.842H417.05C414.877 229.842 412.793 228.979 411.257 227.443C409.721 225.906 408.858 223.823 408.858 221.65C408.858 219.477 409.721 217.394 411.257 215.857C412.793 214.321 414.877 213.458 417.05 213.458H432.748L420.04 110.408H286.536L288.041 213.458H302.377C304.55 213.458 306.633 214.321 308.17 215.857C309.706 217.394 310.569 219.477 310.569 221.65C310.569 223.823 309.706 225.906 308.17 227.443C306.633 228.979 304.55 229.842 302.377 229.842H279.972C277.82 229.842 275.755 228.996 274.222 227.486C272.689 225.976 271.812 223.924 271.78 221.773L270.029 102.333C270.013 101.248 270.214 100.17 270.618 99.1623C271.023 98.1548 271.624 97.2378 272.386 96.4645C273.148 95.6913 274.057 95.0774 275.058 94.6583C276.06 94.2393 277.135 94.0236 278.221 94.0237H427.284C429.28 94.023 431.208 94.7509 432.705 96.0708C434.202 97.3906 435.166 99.2115 435.415 101.192L450.145 220.672C450.291 221.825 450.189 222.996 449.847 224.107C449.504 225.218 448.93 226.244 448.161 227.116C447.392 227.987 446.446 228.685 445.386 229.163C444.326 229.641 443.177 229.888 442.015 229.888V229.842Z" fill="white"/>
<path d="M460.8 417.976H278.354C276.202 417.977 274.135 417.13 272.603 415.619C271.07 414.108 270.193 412.054 270.162 409.902L267.971 260.019C267.955 258.934 268.155 257.856 268.56 256.848C268.965 255.841 269.566 254.924 270.328 254.15C271.09 253.377 271.999 252.763 273 252.344C274.002 251.925 275.077 251.709 276.163 251.709H291.579C293.752 251.709 295.835 252.573 297.372 254.109C298.908 255.645 299.771 257.729 299.771 259.901C299.771 262.074 298.908 264.158 297.372 265.694C295.835 267.23 293.752 268.093 291.579 268.093H284.477L286.423 401.592H451.538L435.072 268.093H427.832C425.66 268.093 423.576 267.23 422.04 265.694C420.503 264.158 419.64 262.074 419.64 259.901C419.64 257.729 420.503 255.645 422.04 254.109C423.576 252.573 425.66 251.709 427.832 251.709H442.317C444.313 251.709 446.24 252.437 447.737 253.757C449.234 255.076 450.198 256.897 450.447 258.877L468.931 408.76C469.076 409.914 468.974 411.085 468.632 412.196C468.29 413.307 467.715 414.332 466.946 415.204C466.177 416.076 465.231 416.774 464.171 417.252C463.112 417.73 461.962 417.977 460.8 417.976Z" fill="white"/>
<path d="M233.646 417.516H51.2C50.0375 417.516 48.8883 417.269 47.8286 416.791C46.769 416.313 45.8232 415.615 45.0541 414.743C44.2851 413.871 43.7103 412.846 43.3681 411.735C43.026 410.624 42.9241 409.453 43.0694 408.3L61.5526 258.412C61.801 256.43 62.7642 254.608 64.2614 253.287C65.7586 251.967 67.6866 251.238 69.6832 251.238H235.837C236.924 251.238 237.999 251.454 239.001 251.874C240.003 252.293 240.912 252.907 241.674 253.681C242.436 254.455 243.037 255.372 243.441 256.381C243.846 257.389 244.046 258.467 244.029 259.553L241.838 409.441C241.807 411.593 240.93 413.647 239.397 415.158C237.865 416.669 235.798 417.516 233.646 417.516ZM60.4621 401.132H225.572L227.523 267.622H76.928L60.4621 401.132Z" fill="white"/>
<path d="M359.706 389.693C358.477 389.694 357.263 389.419 356.156 388.887C355.048 388.355 354.074 387.581 353.306 386.621C352.599 385.736 335.826 364.677 318.771 338.611C295.27 302.694 283.356 275.743 283.356 258.509C283.356 216.412 317.604 182.159 359.706 182.159C401.807 182.159 436.06 216.412 436.06 258.509C436.06 275.743 424.141 302.694 400.64 338.611C383.585 364.677 366.812 385.715 366.111 386.621C365.342 387.581 364.367 388.356 363.259 388.888C362.15 389.42 360.935 389.695 359.706 389.693ZM359.706 198.538C343.807 198.556 328.565 204.879 317.323 216.121C306.081 227.363 299.758 242.605 299.74 258.504C299.74 284.14 338.473 340.291 359.706 368.164C380.928 340.291 419.676 284.16 419.676 258.504C419.657 242.605 413.333 227.363 402.09 216.121C390.847 204.879 375.605 198.556 359.706 198.538Z" fill="white"/>
<path d="M359.706 293.888C352.301 293.888 345.063 291.692 338.906 287.579C332.75 283.465 327.951 277.618 325.118 270.777C322.284 263.936 321.543 256.409 322.987 249.147C324.432 241.885 327.998 235.214 333.233 229.978C338.469 224.743 345.14 221.177 352.402 219.732C359.664 218.288 367.191 219.029 374.032 221.863C380.873 224.696 386.72 229.495 390.834 235.651C394.947 241.808 397.143 249.046 397.143 256.451C397.131 266.376 393.183 275.891 386.164 282.909C379.146 289.928 369.631 293.876 359.706 293.888ZM359.706 235.397C355.542 235.397 351.471 236.632 348.009 238.945C344.547 241.259 341.848 244.547 340.255 248.394C338.661 252.241 338.244 256.474 339.057 260.558C339.869 264.642 341.874 268.393 344.819 271.338C347.763 274.282 351.514 276.287 355.598 277.099C359.682 277.912 363.915 277.495 367.762 275.901C371.609 274.308 374.898 271.609 377.211 268.147C379.524 264.685 380.759 260.615 380.759 256.451C380.752 250.869 378.532 245.519 374.585 241.573C370.638 237.627 365.287 235.408 359.706 235.402V235.397Z" fill="white"/>
</svg>
