<svg width="512" height="512" viewBox="0 0 512 512" fill="none" xmlns="http://www.w3.org/2000/svg">
<g clip-path="url(#clip0_519_146)">
<path fill-rule="evenodd" clip-rule="evenodd" d="M302.098 512H55.5622C51.876 512 48.8831 509.01 48.8831 505.323L48.8842 235.932C48.8842 232.244 51.8736 229.256 55.561 229.256C59.2473 229.255 62.239 232.245 62.239 235.933L62.2402 498.644H302.098C305.785 498.644 308.775 501.625 308.775 505.323C308.776 509.01 305.784 512.001 302.098 512Z" fill="white"/>
<path fill-rule="evenodd" clip-rule="evenodd" d="M318.295 456.869C314.609 456.869 311.616 453.88 311.616 450.192L311.617 235.932C311.617 232.245 314.607 229.257 318.294 229.257C321.98 229.255 324.972 232.246 324.972 235.933L324.973 450.191C324.973 453.88 321.98 456.87 318.295 456.869ZM456.433 456.869C452.744 456.869 449.754 453.88 449.754 450.192L449.755 235.932C449.755 232.245 452.744 229.257 456.432 229.257C460.13 229.255 463.108 232.246 463.108 235.933L463.111 450.191C463.111 453.88 460.13 456.87 456.433 456.869Z" fill="white"/>
<path fill-rule="evenodd" clip-rule="evenodd" d="M462.38 484.502C458.68 484.502 455.699 481.51 455.699 477.824L455.702 456.869H319.037V477.824C319.037 481.51 316.044 484.502 312.357 484.502C308.67 484.502 305.68 481.51 305.68 477.824L305.681 450.191C305.681 446.505 308.67 443.514 312.357 443.514L462.38 443.513C466.065 443.513 469.044 446.505 469.044 450.192L469.045 477.824C469.045 481.51 466.064 484.502 462.38 484.502Z" fill="white"/>
<path fill-rule="evenodd" clip-rule="evenodd" d="M308.776 498.644H465.951V484.501H308.776V498.644ZM472.629 512H302.098C298.412 512 295.419 509.009 295.419 505.323L295.42 477.823C295.42 474.136 298.411 471.146 302.097 471.146H472.629C476.315 471.146 479.304 474.137 479.304 477.823L479.307 505.322C479.307 509.009 476.314 512.001 472.629 512Z" fill="white"/>
<path fill-rule="evenodd" clip-rule="evenodd" d="M425.675 456.869C421.986 456.869 418.994 453.88 418.994 450.192L418.997 324.384H355.729V450.191C355.729 453.88 352.738 456.87 349.05 456.87C345.365 456.869 342.374 453.88 342.374 450.192V317.708C342.374 314.019 345.364 311.031 349.05 311.031L425.675 311.03C429.361 311.03 432.35 314.019 432.35 317.709L432.353 450.191C432.353 453.88 429.36 456.87 425.675 456.869Z" fill="white"/>
<path fill-rule="evenodd" clip-rule="evenodd" d="M366.859 403.382C363.171 403.382 360.179 400.394 360.179 396.706L360.181 371.193C360.181 367.507 363.171 364.516 366.857 364.516C370.546 364.516 373.535 367.507 373.535 371.194L373.537 396.705C373.537 400.394 370.544 403.383 366.859 403.382Z" fill="white"/>
<path fill-rule="evenodd" clip-rule="evenodd" d="M473.588 242.611H38.4031C34.7168 242.611 31.7251 239.622 31.7251 235.933V187.061C31.7251 183.373 34.7157 180.384 38.4031 180.384C42.0917 180.383 45.081 183.373 45.081 187.061V229.256H466.91V187.061C466.91 183.373 469.9 180.384 473.588 180.384C477.276 180.383 480.266 183.373 480.266 187.061V235.933C480.266 239.621 477.274 242.613 473.588 242.611Z" fill="white"/>
<path fill-rule="evenodd" clip-rule="evenodd" d="M119.731 429.725H237.927V311.529H119.731V429.725ZM244.605 443.081H113.053C109.368 443.081 106.374 440.09 106.374 436.403L106.375 304.852C106.375 301.164 109.366 298.175 113.052 298.175L244.605 298.174C248.293 298.174 251.281 301.165 251.281 304.853L251.283 436.403C251.283 440.09 248.291 443.081 244.605 443.081Z" fill="white"/>
<path fill-rule="evenodd" clip-rule="evenodd" d="M178.836 443.078C175.137 443.078 172.157 440.089 172.157 436.4L172.158 304.851C172.158 301.162 175.136 298.174 178.834 298.174C182.522 298.173 185.512 301.163 185.512 304.852L185.514 436.4C185.514 440.088 182.521 443.078 178.836 443.078Z" fill="white"/>
<path fill-rule="evenodd" clip-rule="evenodd" d="M244.605 377.306H113.053C109.368 377.306 106.374 374.315 106.374 370.628C106.375 366.939 109.366 363.95 113.052 363.95H244.605C248.293 363.95 251.281 366.94 251.281 370.628C251.283 374.315 248.291 377.306 244.605 377.306Z" fill="white"/>
<path fill-rule="evenodd" clip-rule="evenodd" d="M28.9075 180.383H483.097V144.864H28.9075V180.383ZM489.775 193.737H22.2295C18.5432 193.737 15.5503 190.749 15.5503 187.061L15.5515 138.187C15.5515 134.499 18.542 131.511 22.2283 131.511L489.774 131.51C493.46 131.51 496.451 134.499 496.451 138.188L496.452 187.061C496.452 190.749 493.46 193.739 489.775 193.737Z" fill="white"/>
<path fill-rule="evenodd" clip-rule="evenodd" d="M32.4544 131.509H479.534L427.562 13.3561H84.4386L32.4544 131.509ZM489.773 144.864H22.2273C19.9679 144.864 17.8679 143.727 16.6265 141.837C15.3982 139.947 15.2009 137.564 16.1175 135.499L73.9706 3.99007C75.0371 1.56644 77.423 0.00146484 80.0781 0.00146484H431.919C434.562 0.00146484 436.962 1.56761 438.028 3.99007L495.881 135.498C496.786 137.563 496.588 139.947 495.358 141.837C494.131 143.726 492.021 144.865 489.773 144.864Z" fill="white"/>
<path fill-rule="evenodd" clip-rule="evenodd" d="M115.743 144.867C115.174 144.867 114.606 144.796 114.026 144.645C110.469 143.703 108.333 140.049 109.272 136.483L143.996 4.97397C144.935 1.40939 148.587 -0.717767 152.147 0.222376C155.719 1.16254 157.85 4.81806 156.899 8.38382L122.189 139.893C121.401 142.887 118.699 144.868 115.743 144.867Z" fill="white"/>
<path fill-rule="evenodd" clip-rule="evenodd" d="M209.257 144.866C209.058 144.866 208.862 144.857 208.653 144.84C204.99 144.516 202.265 141.276 202.59 137.602L214.161 6.09378C214.484 2.41937 217.73 -0.292463 221.394 0.0276079C225.07 0.350049 227.794 3.59102 227.47 7.26544L215.901 138.772C215.588 142.247 212.676 144.867 209.257 144.866Z" fill="white"/>
<path fill-rule="evenodd" clip-rule="evenodd" d="M302.746 144.865C299.315 144.865 296.404 142.248 296.101 138.773L284.534 7.26534C284.206 3.59093 286.919 0.351155 290.595 0.0275134C294.26 -0.302017 297.504 2.42044 297.829 6.09486L309.401 137.6C309.727 141.275 307.011 144.516 303.336 144.839C303.14 144.857 302.942 144.867 302.746 144.865Z" fill="white"/>
<path fill-rule="evenodd" clip-rule="evenodd" d="M396.262 144.867C393.293 144.867 390.591 142.887 389.803 139.893L355.094 8.38382C354.155 4.81687 356.275 1.16373 359.845 0.222382C363.404 -0.717779 367.068 1.40939 368.007 4.97398L402.718 136.483C403.66 140.049 401.536 143.703 397.964 144.645C397.396 144.796 396.816 144.868 396.262 144.867Z" fill="white"/>
<path fill-rule="evenodd" clip-rule="evenodd" d="M470.48 101.03H41.508C37.823 101.03 34.8301 98.0404 34.8301 94.3518C34.8301 90.6644 37.8218 87.675 41.508 87.675L470.48 87.6738C474.168 87.6738 477.158 90.6644 477.158 94.3518C477.158 98.0392 474.167 101.03 470.48 101.03Z" fill="white"/>
<path fill-rule="evenodd" clip-rule="evenodd" d="M451.202 57.1931H60.8012C57.102 57.1931 54.1221 54.2038 54.1221 50.5163C54.1233 46.8277 57.1008 43.8384 60.8 43.8384H451.201C454.887 43.8384 457.877 46.8278 457.877 50.5163C457.879 54.2037 454.888 57.1931 451.202 57.1931Z" fill="white"/>
</g>
<defs>
<clipPath id="clip0_519_146">
<rect width="512" height="512" fill="white"/>
</clipPath>
</defs>
</svg>
