<svg width="84" height="83" viewBox="0 0 84 83" fill="none" xmlns="http://www.w3.org/2000/svg">
<path d="M42 82.2969C64.7257 82.2969 83.1485 63.8741 83.1485 41.1485C83.1485 18.4228 64.7257 0 42 0C19.2744 0 0.851562 18.4228 0.851562 41.1485C0.851562 63.8741 19.2744 82.2969 42 82.2969Z" fill="#F62771"/>
<path d="M26.9807 59.4288C27.1447 62.0536 28.8838 63.6513 31.5521 63.6513C38.4562 63.6513 45.3598 63.6513 52.2629 63.6513C55.2928 63.6513 56.8953 62.0938 57.077 59.0816C57.5592 50.9596 58.7615 31.1569 58.8451 29.5415H25.2046C25.2046 29.8967 26.3828 49.9212 26.9807 59.4288Z" fill="white"/>
<path d="M58.8161 21.5388C56.4388 21.5243 54.0599 21.5034 51.6842 21.5516C51.6197 20.7599 51.2596 20.0215 50.6756 19.4831C50.0917 18.9447 49.3265 18.6457 48.5322 18.6455H35.4676C34.6753 18.6454 33.9119 18.9427 33.3282 19.4784C32.7445 20.0141 32.3832 20.7494 32.3155 21.5388C29.8691 21.4954 27.4211 21.5098 24.9731 21.5388C23.6985 21.55 22.7694 22.2685 22.4608 23.3888C21.9223 25.3466 23.1037 26.97 25.1387 26.9765C30.7644 26.9941 36.3902 26.9765 42.016 26.9765C47.6064 26.9765 53.1973 26.9765 58.7888 26.9765C60.6051 26.9765 61.6563 25.959 61.6611 24.2648C61.666 22.5707 60.6244 21.5388 58.8161 21.5388Z" fill="white"/>
</svg>
