<svg width="83" height="83" viewBox="0 0 83 83" fill="none" xmlns="http://www.w3.org/2000/svg">
<path d="M41.8516 82.2969C64.5773 82.2969 83.0001 63.8741 83.0001 41.1485C83.0001 18.4228 64.5773 0 41.8516 0C19.1259 0 0.703125 18.4228 0.703125 41.1485C0.703125 63.8741 19.1259 82.2969 41.8516 82.2969Z" fill="#26A1F4"/>
<path d="M56.1812 38.1812L56.1587 38.1587L44.8172 26.8091C44.8172 26.8091 30.9939 40.6324 24.3329 47.4315C23.5035 48.277 22.8751 49.4536 22.5022 50.5916C21.4092 53.9333 20.5042 57.3425 19.498 60.718C19.228 61.6229 19.2826 62.4202 19.9915 63.0953C20.6601 63.7382 21.4124 63.7607 22.2803 63.5003C25.4951 62.5359 28.7307 61.6181 31.9599 60.6939C33.6204 60.2126 35.1257 59.3042 36.3255 58.0594C42.6713 51.675 56.1812 38.1812 56.1812 38.1812Z" fill="white"/>
<path d="M62.8019 24.08L58.9233 20.2015C57.9287 19.2077 56.5802 18.6494 55.1741 18.6494C53.7681 18.6494 52.4196 19.2077 51.4249 20.2015L47.0288 24.5928L58.4073 35.9745L62.8035 31.5784C63.7971 30.5835 64.355 29.2349 64.3547 27.8289C64.3544 26.4228 63.7959 25.0745 62.8019 24.08Z" fill="white"/>
</svg>
