<svg width="83" height="83" viewBox="0 0 83 83" fill="none" xmlns="http://www.w3.org/2000/svg">
<path d="M41.1485 82.2969C63.8741 82.2969 82.2969 63.8741 82.2969 41.1485C82.2969 18.4228 63.8741 0 41.1485 0C18.4228 0 0 18.4228 0 41.1485C0 63.8741 18.4228 82.2969 41.1485 82.2969Z" fill="#9E31CA"/>
<path d="M63.6259 40.4575C56.486 23.098 36.4245 16.99 23.6026 32.5091C21.6995 34.978 19.2113 38.0063 18.6455 41.1069C19.2515 44.3072 21.5388 47.1731 23.5351 49.7047C26.4123 53.2987 29.9501 56.0875 35.1081 57.7785C43.7011 60.6556 53.8114 56.4685 58.8167 49.7047C60.5334 47.5074 63.9731 43.2672 63.6259 40.4575ZM41.1727 52.7217C38.8838 52.7217 36.6462 52.043 34.7431 50.7713C32.8399 49.4996 31.3566 47.6922 30.4806 45.5775C29.6047 43.4628 29.3755 41.1359 29.8221 38.8909C30.2686 36.646 31.3708 34.5839 32.9893 32.9653C34.6078 31.3468 36.67 30.2446 38.9149 29.7981C41.1598 29.3515 43.4868 29.5807 45.6015 30.4566C47.7162 31.3326 49.5236 32.8159 50.7953 34.7191C52.0669 36.6222 52.7457 38.8598 52.7457 41.1487C52.7457 44.218 51.5264 47.1617 49.356 49.332C47.1857 51.5024 44.242 52.7217 41.1727 52.7217Z" fill="white"/>
<path d="M45.9284 45.9127C48.5594 43.2818 48.5594 39.0161 45.9284 36.3851C43.2974 33.7541 39.0318 33.7541 36.4008 36.3851C33.7698 39.0161 33.7698 43.2818 36.4008 45.9127C39.0318 48.5437 43.2974 48.5437 45.9284 45.9127Z" fill="white"/>
</svg>
